#usda 1.0
(
    customLayerData = {
        dictionary cameraSettings = {
            dictionary Front = {
                double3 position = (0, 0, 50000)
                double radius = 500
            }
            dictionary Perspective = {
                double3 position = (-771.4769936769062, 237.9538576719264, -88.48395694041844)
                double3 target = (49.219026292949934, 36.06830748781974, 65.32658547834637)
            }
            dictionary Right = {
                double3 position = (-50000, 0, 0)
                double radius = 500
            }
            dictionary Top = {
                double3 position = (0, 50000, 0)
                double radius = 500
            }
            string boundCamera = "/OmniverseKit_Persp"
        }
        dictionary omni_layer = {
            string authoring_layer = "E:/SynologyDrive/9999_LocalRepo/USD_GoodStart/020_LYR_USD/Opinion_xyz_LYR.usda"
            dictionary locked = {
            }
            dictionary muteness = {
            }
        }
        dictionary renderSettings = {
        }
    }
    defaultPrim = "World"
    endTimeCode = 100
    metersPerUnit = 0.01
    startTimeCode = 0
    timeCodesPerSecond = 60
    upAxis = "Y"
)

over "World"
{
    over "Geo"
    {
        over "nvidia_shader_ball"
        {
            double3 xformOp:rotateXYZ = (0, 0, 0)
            double3 xformOp:scale = (1, 1, 1)
            double3 xformOp:translate = (17.46904850038133, 176.23009685101712, 126.57352712500494)
            uniform token[] xformOpOrder = ["xformOp:translate", "xformOp:rotateXYZ", "xformOp:scale"]
        }
    }
}

